name analog
datacolumns 19
datarows 28
range 0.262 0.2755
endheader
time	ground_force_vx	ground_force_vy	ground_force_vz	ground_force_px	ground_force_py	ground_force_pz	l_ground_force_vx	l_ground_force_vy	l_ground_force_vz	l_ground_force_px	l_ground_force_py	l_ground_force_pz	ground_torque_x	ground_torque_y	ground_torque_z	l_ground_torque_x	l_ground_torque_y	l_ground_torque_z
0.262	-0.0	-0.0	-0.0	-1.0671420097351074	52.22365188598633	-379.9546203613281	12.160242080688477	-57.37833786010742	-390.4055480957031	-0.0	-0.0	-0.0	-0.0	-0.0	-0.0	113102.375	-13321.861328125	108.13932037353516
0.2625	-0.0	-0.0	-0.0	-0.3735805451869964	51.97306060791016	-375.876220703125	11.726804733276367	-56.794227600097656	-394.1921997070313	-0.0	-0.0	-0.0	-0.0	-0.0	-0.0	113463.8515625	-13494.71875	-9.49264907836914
0.263	-0.0	-0.0	-0.0	-0.799582302570343	52.2996940612793	-377.6149291992188	11.86707878112793	-57.22576141357422	-395.2264099121094	-0.0	-0.0	-0.0	-0.0	-0.0	-0.0	113965.6484375	-13372.65234375	-157.78736877441406
0.2635	-0.0	-0.0	-0.0	-0.8855534195899963	51.6890869140625	-378.3076171875	11.279568672180176	-56.96749114990234	-396.3263549804688	-0.0	-0.0	-0.0	-0.0	-0.0	-0.0	114741.7890625	-13465.2822265625	-303.088134765625
0.264	-0.0	-0.0	-0.0	0.0827317088842392	51.60650634765625	-376.7660827636719	10.921292304992676	-56.96421813964844	-398.3561401367188	-0.0	-0.0	-0.0	-0.0	-0.0	-0.0	115192.890625	-13437.236328125	-506.5916748046875
0.2645	-0.0	-0.0	-0.0	0.3728621304035187	51.44425201416016	-372.757080078125	10.668067932128906	-57.30782318115234	-400.1021423339844	-0.0	-0.0	-0.0	-0.0	-0.0	-0.0	115305.8515625	-13493.9638671875	-601.3377075195312
0.265	-0.0	-0.0	-0.0	1.0515207052230835	51.6798095703125	-371.2046813964844	10.740439414978027	-56.3620491027832	-402.1466979980469	-0.0	-0.0	-0.0	-0.0	-0.0	-0.0	116020.671875	-13605.8828125	-805.4548950195312
0.2655	-0.0	-0.0	-0.0	1.4398927688598633	51.40947723388672	-367.6727294921875	11.006499290466309	-56.43756103515625	-402.1475524902344	-0.0	-0.0	-0.0	-0.0	-0.0	-0.0	116303.203125	-13427.177734375	-715.2532958984375
0.266	-0.0	-0.0	-0.0	2.239550828933716	50.53075408935547	-365.1390075683594	11.263123512268066	-56.49455642700195	-401.3238220214844	-0.0	-0.0	-0.0	-0.0	-0.0	-0.0	117081.5	-13184.611328125	-715.1202392578125
0.2665	-0.0	-0.0	-0.0	2.325592517852783	50.2542610168457	-362.7158203125	11.091958045959473	-55.286277770996094	-403.2701416015625	-0.0	-0.0	-0.0	-0.0	-0.0	-0.0	116693.046875	-13127.1806640625	-751.9146118164062
0.267	-0.0	-0.0	-0.0	3.101205825805664	49.55348205566406	-360.5847778320313	11.09192180633545	-54.94832992553711	-403.9926452636719	-0.0	-0.0	-0.0	-0.0	-0.0	-0.0	116618.015625	-13076.9130859375	-813.1639404296875
0.2675	-0.0	-0.0	-0.0	2.821871280670166	49.03366088867188	-360.5257568359375	11.26019287109375	-55.62451171875	-403.9206237792969	-0.0	-0.0	-0.0	-0.0	-0.0	-0.0	116725.828125	-13129.71484375	-840.7774047851562
0.268	-0.0	-0.0	-0.0	1.9773876667022705	48.23724365234375	-356.8285827636719	10.991130828857422	-56.3552131652832	-403.2937622070313	-0.0	-0.0	-0.0	-0.0	-0.0	-0.0	116948.0625	-12952.3984375	-1134.734619140625
0.2685	-0.0	-0.0	-0.0	1.7754656076431274	48.57607269287109	-360.9844970703125	10.639362335205078	-56.70252227783203	-404.3642578125	-0.0	-0.0	-0.0	-0.0	-0.0	-0.0	117034.1015625	-12692.4814453125	-1398.0703125
0.269	-0.0	-0.0	-0.0	0.2733904421329498	48.93547058105469	-361.6904602050781	10.113029479980469	-57.22369766235352	-405.66802978515625	-0.0	-0.0	-0.0	-0.0	-0.0	-0.0	117138.6328125	-12721.208984375	-1259.1119384765625
0.2695	-0.0	-0.0	-0.0	-0.6187875270843506	49.12505722045898	-363.4447021484375	10.195951461791992	-57.07310104370117	-404.6781311035156	-0.0	-0.0	-0.0	-0.0	-0.0	-0.0	117118.78125	-12709.234375	-1522.046875
0.27	-0.0	-0.0	-0.0	-1.3465774059295654	49.67367935180664	-366.3254089355469	10.01860237121582	-57.67121887207031	-405.3537902832031	-0.0	-0.0	-0.0	-0.0	-0.0	-0.0	116771.203125	-12480.60546875	-1670.62109375
0.2705	-0.0	-0.0	-0.0	-2.854736328125	50.893463134765625	-370.5296325683594	9.58358669281006	-58.00487518310547	-404.3175659179688	-0.0	-0.0	-0.0	-0.0	-0.0	-0.0	116844.328125	-12388.6962890625	-1935.1363525390625
0.271	-0.0	-0.0	-0.0	-3.579359292984009	51.3527717590332	-374.4031982421875	9.306272506713867	-57.5801887512207	-403.935546875	-0.0	-0.0	-0.0	-0.0	-0.0	-0.0	116820.6015625	-12293.3818359375	-2081.694091796875
0.2715	-0.0	-0.0	-0.0	-4.2794060707092285	51.6199836730957	-376.11529541015625	8.868328094482422	-57.67406463623047	-404.3283996582031	-0.0	-0.0	-0.0	-0.0	-0.0	-0.0	116628.046875	-11972.1201171875	-2262.80908203125
0.272	-0.0	-0.0	-0.0	-4.99578857421875	52.22243881225586	-375.8255920410156	8.26095962524414	-57.754276275634766	-404.306884765625	-0.0	-0.0	-0.0	-0.0	-0.0	-0.0	116694.4765625	-12003.9306640625	-2443.060791015625
0.2725	-0.0	-0.0	-0.0	-5.074493408203125	51.79788589477539	-378.2557373046875	7.822622776031494	-58.20932769775391	-403.9684448242188	-0.0	-0.0	-0.0	-0.0	-0.0	-0.0	116927.484375	-11911.93359375	-2652.0087890625
0.273	-0.0	-0.0	-0.0	-4.6518964767456055	51.62461853027344	-376.52056884765625	8.062110900878906	-58.12882614135742	-404.3071594238281	-0.0	-0.0	-0.0	-0.0	-0.0	-0.0	116657.1875	-11667.6728515625	-2739.89013671875
0.2735	-0.0	-0.0	-0.0	-3.922708988189697	51.60140228271485	-374.7643737792969	7.631733894348144	-58.65597915649414	-404.3688659667969	-0.0	-0.0	-0.0	-0.0	-0.0	-0.0	116426.1640625	-11575.1103515625	-2892.98388671875
0.274	-0.0	-0.0	-0.0	-3.3748891353607178	51.25753402709961	-372.2715759277344	7.454277515411377	-59.07696914672852	-405.6939392089844	-0.0	-0.0	-0.0	-0.0	-0.0	-0.0	116712.4609375	-11690.8134765625	-2950.743408203125
0.2745	-0.0	-0.0	-0.0	-2.403719902038574	50.64094543457031	-371.5059814453125	7.892724514007568	-59.00393295288086	-405.0058898925781	-0.0	-0.0	-0.0	-0.0	-0.0	-0.0	116964.3984375	-11444.1728515625	-3005.441650390625
0.275	-0.0	-0.0	-0.0	-1.52391517162323	50.37089538574219	-370.8098754882813	7.710340976715088	-59.09467697143555	-405.355224609375	-0.0	-0.0	-0.0	-0.0	-0.0	-0.0	116766.1015625	-11284.568359375	-3209.900146484375
0.2755	-0.0	-0.0	-0.0	-1.6178395748138428	50.36831283569336	-370.4571533203125	7.892796039581299	-59.18288803100586	-406.0342712402344	-0.0	-0.0	-0.0	-0.0	-0.0	-0.0	116795.421875	-11445.5234375	-3238.679931640625
